<svg width="42" height="47" viewBox="0 0 42 47" fill="none" xmlns="http://www.w3.org/2000/svg">
<g clip-path="url(#clip0_3_9423)">
<g clip-path="url(#clip1_3_9423)">
<path d="M31.5688 3.61536H12.1261C7.08592 3.61536 3 7.75194 3 12.8547V33.3419C3 38.4446 7.08592 42.5812 12.1261 42.5812H31.5688C36.609 42.5812 40.695 38.4446 40.695 33.3419V12.8547C40.695 7.75194 36.609 3.61536 31.5688 3.61536Z" fill="url(#paint0_linear_3_9423)"/>
<path d="M22.9823 13.3126V32.9401H19.0938V24.5886H10.789V32.9401H6.90045V13.3126H10.789V21.383H19.0938V13.3126H22.9823ZM34.4756 22.8733C35.5681 23.0795 36.4662 23.6325 37.1698 24.5324C37.8734 25.4322 38.2253 26.4633 38.2253 27.6255C38.2253 28.6753 37.966 29.6033 37.4476 30.4094C36.9476 31.1967 36.2162 31.8154 35.2533 32.2653C34.2904 32.7152 33.1517 32.9401 31.837 32.9401H23.4766V13.3126H31.4759C32.7906 13.3126 33.9201 13.5282 34.8645 13.9594C35.8273 14.3905 36.5495 14.9904 37.0309 15.759C37.5309 16.5276 37.7809 17.3993 37.7809 18.3742C37.7809 19.5177 37.4753 20.4738 36.8643 21.2424C36.2717 22.011 35.4755 22.5546 34.4756 22.8733ZM27.3652 21.4111H30.9204C31.8462 21.4111 32.5591 21.2049 33.0591 20.7925C33.559 20.3613 33.809 19.752 33.809 18.9647C33.809 18.1773 33.559 17.5681 33.0591 17.1369C32.5591 16.7057 31.8462 16.4901 30.9204 16.4901H27.3652V21.4111ZM31.2815 29.7345C32.2258 29.7345 32.9572 29.5095 33.4757 29.0596C34.0127 28.6097 34.2812 27.9723 34.2812 27.1475C34.2812 26.3039 34.0034 25.6478 33.4479 25.1791C32.8924 24.6917 32.1425 24.448 31.1981 24.448H27.3652V29.7345H31.2815Z" fill="white"/>
</g>
</g>
<defs>
<linearGradient id="paint0_linear_3_9423" x1="21.8475" y1="3.61536" x2="21.8475" y2="42.5812" gradientUnits="userSpaceOnUse">
<stop stop-color="#7A2A96"/>
<stop offset="1" stop-color="#150578"/>
</linearGradient>
<clipPath id="clip0_3_9423">
<rect width="42" height="47" fill="white"/>
</clipPath>
<clipPath id="clip1_3_9423">
<rect width="182" height="47" fill="white"/>
</clipPath>
</defs>
</svg>
