<svg width="182" height="47" viewBox="0 0 182 47" fill="none" xmlns="http://www.w3.org/2000/svg">
<path d="M66.7056 3.74715V21.6923H63.1504V14.0566H55.5575V21.6923H52.0022V3.74715H55.5575V11.1258H63.1504V3.74715H66.7056ZM67.2592 14.5194C67.2592 13.0797 67.5385 11.8028 68.0972 10.6887C68.6729 9.57463 69.4431 8.71762 70.4081 8.11775C71.3901 7.51788 72.4821 7.21792 73.684 7.21792C74.7335 7.21792 75.6477 7.43215 76.4266 7.86066C77.2221 8.28916 77.857 8.82906 78.3312 9.48035V7.44931H81.9118V21.6923H78.3312V19.6099C77.8741 20.2783 77.2392 20.8354 76.4266 21.281C75.631 21.7095 74.7081 21.9237 73.6586 21.9237C72.4734 21.9237 71.3901 21.6152 70.4081 20.9982C69.4431 20.3811 68.6729 19.5156 68.0972 18.4015C67.5385 17.2703 67.2592 15.9763 67.2592 14.5194ZM78.3312 14.5708C78.3312 13.6967 78.1617 12.9511 77.8233 12.3341C77.4848 11.6999 77.0277 11.22 76.452 10.8944C75.8762 10.5516 75.2584 10.3802 74.5982 10.3802C73.9379 10.3802 73.3284 10.543 72.7698 10.8687C72.2111 11.1943 71.754 11.6742 71.3985 12.3084C71.06 12.9254 70.8906 13.6624 70.8906 14.5194C70.8906 15.3764 71.06 16.1305 71.3985 16.7818C71.754 17.416 72.2111 17.9045 72.7698 18.2473C73.3455 18.59 73.955 18.7614 74.5982 18.7614C75.2584 18.7614 75.8762 18.5986 76.452 18.273C77.0277 17.9302 77.4848 17.4503 77.8233 16.8332C78.1617 16.1991 78.3312 15.4449 78.3312 14.5708ZM88.7362 21.9237C87.5851 21.9237 86.5522 21.718 85.638 21.3067C84.7238 20.8782 83.9957 20.304 83.4541 19.5841C82.9292 18.8643 82.6415 18.0673 82.5907 17.1932H86.1713C86.2392 17.7416 86.5014 18.1958 86.9585 18.5558C87.4327 18.9157 88.0168 19.0957 88.7108 19.0957C89.3881 19.0957 89.9126 18.9586 90.2852 18.6843C90.6745 18.4101 90.8693 18.0587 90.8693 17.6302C90.8693 17.1675 90.6324 16.8247 90.1583 16.6019C89.7012 16.3619 88.9647 16.1048 87.9489 15.8306C86.8994 15.5735 86.036 15.3078 85.3587 15.0336C84.6984 14.7593 84.1227 14.3394 83.6319 13.7738C83.1577 13.2082 82.9208 12.4455 82.9208 11.4857C82.9208 10.6972 83.141 9.97739 83.5811 9.32609C84.0382 8.6748 84.6814 8.16061 85.5111 7.78353C86.3574 7.40644 87.3478 7.21792 88.4822 7.21792C90.1583 7.21792 91.4958 7.64643 92.4945 8.50339C93.4933 9.34325 94.0436 10.483 94.1452 11.9227H90.7423C90.6915 11.3571 90.4547 10.9115 90.0313 10.5859C89.625 10.2431 89.0746 10.0717 88.3806 10.0717C87.7374 10.0717 87.2379 10.1917 86.8824 10.4316C86.5439 10.6715 86.3745 11.0058 86.3745 11.4343C86.3745 11.9142 86.6114 12.2827 87.0855 12.5398C87.5597 12.7797 88.2961 13.0282 89.2948 13.2853C90.3106 13.5424 91.1486 13.8081 91.8089 14.0823C92.4692 14.3566 93.0362 14.785 93.5103 15.3678C94.0012 15.9334 94.2551 16.6875 94.2722 17.6302C94.2722 18.4529 94.0436 19.1899 93.5865 19.8412C93.1465 20.4925 92.5029 21.0067 91.6565 21.3838C90.8268 21.7437 89.8535 21.9237 88.7362 21.9237ZM103.082 7.24363C104.149 7.24363 105.097 7.48357 105.926 7.9635C106.756 8.42626 107.399 9.12042 107.856 10.046C108.33 10.9543 108.567 12.0513 108.567 13.3368V21.6923H105.012V13.8252C105.012 12.694 104.733 11.8285 104.174 11.2286C103.615 10.6116 102.854 10.3031 101.889 10.3031C100.906 10.3031 100.128 10.6116 99.5522 11.2286C98.9936 11.8285 98.7142 12.694 98.7142 13.8252V21.6923H95.159V2.66736H98.7142V9.22326C99.1713 8.60623 99.7808 8.12631 100.543 7.78353C101.304 7.4236 102.151 7.24363 103.082 7.24363ZM109.003 14.5194C109.003 13.0797 109.282 11.8028 109.841 10.6887C110.416 9.57463 111.186 8.71762 112.151 8.11775C113.133 7.51788 114.225 7.21792 115.427 7.21792C116.477 7.21792 117.391 7.43215 118.17 7.86066C118.966 8.28916 119.6 8.82906 120.075 9.48035V7.44931H123.655V21.6923H120.075V19.6099C119.617 20.2783 118.983 20.8354 118.17 21.281C117.374 21.7095 116.451 21.9237 115.402 21.9237C114.217 21.9237 113.133 21.6152 112.151 20.9982C111.186 20.3811 110.416 19.5156 109.841 18.4015C109.282 17.2703 109.003 15.9763 109.003 14.5194ZM120.075 14.5708C120.075 13.6967 119.905 12.9511 119.567 12.3341C119.228 11.6999 118.771 11.22 118.195 10.8944C117.62 10.5516 117.002 10.3802 116.342 10.3802C115.681 10.3802 115.072 10.543 114.513 10.8687C113.954 11.1943 113.497 11.6742 113.142 12.3084C112.803 12.9254 112.634 13.6624 112.634 14.5194C112.634 15.3764 112.803 16.1305 113.142 16.7818C113.497 17.416 113.954 17.9045 114.513 18.2473C115.089 18.59 115.698 18.7614 116.342 18.7614C117.002 18.7614 117.62 18.5986 118.195 18.273C118.771 17.9302 119.228 17.4503 119.567 16.8332C119.905 16.1991 120.075 15.4449 120.075 14.5708ZM132.892 7.24363C134.568 7.24363 135.922 7.78353 136.955 8.86332C137.988 9.92597 138.504 11.4171 138.504 13.3368V21.6923H134.949V13.8252C134.949 12.694 134.669 11.8285 134.111 11.2286C133.552 10.6116 132.79 10.3031 131.825 10.3031C130.843 10.3031 130.065 10.6116 129.489 11.2286C128.93 11.8285 128.651 12.694 128.651 13.8252V21.6923H125.096V7.44931H128.651V9.22326C129.125 8.60623 129.726 8.12631 130.454 7.78353C131.199 7.4236 132.012 7.24363 132.892 7.24363ZM143.993 10.4059V17.296C143.993 17.7759 144.103 18.1273 144.323 18.3501C144.56 18.5558 144.949 18.6586 145.491 18.6586H147.142V21.6923H144.907C141.91 21.6923 140.412 20.2183 140.412 17.2703V10.4059H138.736V7.44931H140.412V3.92712H143.993V7.44931H147.142V10.4059H143.993ZM155.59 7.24363C156.657 7.24363 157.605 7.48357 158.435 7.9635C159.264 8.42626 159.907 9.12042 160.365 10.046C160.838 10.9543 161.076 12.0513 161.076 13.3368V21.6923H157.52V13.8252C157.52 12.694 157.241 11.8285 156.682 11.2286C156.124 10.6116 155.362 10.3031 154.397 10.3031C153.415 10.3031 152.636 10.6116 152.061 11.2286C151.502 11.8285 151.222 12.694 151.222 13.8252V21.6923H147.667V2.66736H151.222V9.22326C151.68 8.60623 152.289 8.12631 153.051 7.78353C153.813 7.4236 154.659 7.24363 155.59 7.24363ZM161.51 14.5194C161.51 13.0797 161.79 11.8028 162.348 10.6887C162.924 9.57463 163.694 8.71762 164.659 8.11775C165.641 7.51788 166.733 7.21792 167.935 7.21792C168.985 7.21792 169.899 7.43215 170.678 7.86066C171.473 8.28916 172.108 8.82906 172.582 9.48035V7.44931H176.163V21.6923H172.582V19.6099C172.125 20.2783 171.49 20.8354 170.678 21.281C169.882 21.7095 168.959 21.9237 167.91 21.9237C166.725 21.9237 165.641 21.6152 164.659 20.9982C163.694 20.3811 162.924 19.5156 162.348 18.4015C161.79 17.2703 161.51 15.9763 161.51 14.5194ZM172.582 14.5708C172.582 13.6967 172.413 12.9511 172.075 12.3341C171.736 11.6999 171.279 11.22 170.703 10.8944C170.128 10.5516 169.51 10.3802 168.849 10.3802C168.189 10.3802 167.58 10.543 167.021 10.8687C166.462 11.1943 166.005 11.6742 165.65 12.3084C165.311 12.9254 165.142 13.6624 165.142 14.5194C165.142 15.3764 165.311 16.1305 165.65 16.7818C166.005 17.416 166.462 17.9045 167.021 18.2473C167.597 18.59 168.206 18.7614 168.849 18.7614C169.51 18.7614 170.128 18.5986 170.703 18.273C171.279 17.9302 171.736 17.4503 172.075 16.8332C172.413 16.1991 172.582 15.4449 172.582 14.5708Z" fill="#8F18EB"/>
<path d="M62.0584 32.5738C63.0572 32.7623 63.8785 33.268 64.5217 34.0907C65.1649 34.9134 65.4867 35.856 65.4867 36.9187C65.4867 37.8785 65.2498 38.7269 64.7757 39.4639C64.3186 40.1838 63.65 40.7494 62.7695 41.1607C61.889 41.5721 60.8478 41.7778 59.646 41.7778H52.0022V23.8326H59.3158C60.5177 23.8326 61.5506 24.0297 62.414 24.4239C63.2944 24.8181 63.9547 25.3666 64.3947 26.0693C64.8518 26.772 65.0804 27.569 65.0804 28.4603C65.0804 29.5058 64.8011 30.3799 64.2424 31.0827C63.7008 31.7854 62.9726 32.2824 62.0584 32.5738ZM55.5575 31.2369H58.8079C59.6543 31.2369 60.3062 31.0484 60.7633 30.6713C61.2204 30.2771 61.449 29.7201 61.449 29.0002C61.449 28.2803 61.2204 27.7233 60.7633 27.3291C60.3062 26.9349 59.6543 26.7378 58.8079 26.7378H55.5575V31.2369ZM59.1381 38.8469C60.0015 38.8469 60.6701 38.6412 61.1442 38.2299C61.6351 37.8185 61.8807 37.2358 61.8807 36.4816C61.8807 35.7103 61.6267 35.1105 61.1189 34.682C60.611 34.2364 59.9253 34.0135 59.0619 34.0135H55.5575V38.8469H59.1381ZM67.406 34.6048C67.406 33.1651 67.6853 31.8882 68.244 30.7741C68.8197 29.6601 69.5899 28.8031 70.5549 28.2032C71.5369 27.6033 72.6289 27.3034 73.8308 27.3034C74.8803 27.3034 75.7945 27.5176 76.5734 27.9461C77.3689 28.3746 78.0038 28.9145 78.478 29.5658V27.5348H82.0586V41.7778H78.478V39.6953C78.0209 40.3638 77.386 40.9209 76.5734 41.3664C75.7778 41.795 74.8549 42.0092 73.8054 42.0092C72.6202 42.0092 71.5369 41.7006 70.5549 41.0836C69.5899 40.4666 68.8197 39.601 68.244 38.487C67.6853 37.3557 67.406 36.0617 67.406 34.6048ZM78.478 34.6563C78.478 33.7821 78.3085 33.0366 77.9701 32.4195C77.6316 31.7854 77.1745 31.3055 76.5988 30.9798C76.023 30.637 75.4052 30.4656 74.745 30.4656C74.0847 30.4656 73.4753 30.6284 72.9166 30.9541C72.3579 31.2798 71.9008 31.7597 71.5453 32.3938C71.2068 33.0109 71.0374 33.7479 71.0374 34.6048C71.0374 35.4618 71.2068 36.216 71.5453 36.8673C71.9008 37.5014 72.3579 37.9899 72.9166 38.3327C73.4923 38.6755 74.1018 38.8469 74.745 38.8469C75.4052 38.8469 76.023 38.6841 76.5988 38.3584C77.1745 38.0156 77.6316 37.5357 77.9701 36.9187C78.3085 36.2845 78.478 35.5304 78.478 34.6563ZM93.327 27.3291C95.003 27.3291 96.3573 27.869 97.3901 28.9488C98.423 30.0114 98.9392 31.5026 98.9392 33.4222V41.7778H95.384V33.9107C95.384 32.7795 95.1046 31.9139 94.5459 31.314C93.9873 30.697 93.2254 30.3885 92.2604 30.3885C91.2784 30.3885 90.4999 30.697 89.9241 31.314C89.3655 31.9139 89.0861 32.7795 89.0861 33.9107V41.7778H85.5309V27.5348H89.0861V29.3087C89.5603 28.6917 90.161 28.2118 90.8891 27.869C91.6339 27.509 92.4465 27.3291 93.327 27.3291ZM101.406 34.6048C101.406 33.1651 101.685 31.8882 102.244 30.7741C102.819 29.6601 103.598 28.8031 104.58 28.2032C105.562 27.6033 106.654 27.3034 107.856 27.3034C108.77 27.3034 109.642 27.509 110.472 27.9204C111.301 28.3146 111.961 28.8459 112.453 29.5144V22.7528H116.059V41.7778H112.453V39.6696C112.012 40.3722 111.394 40.9378 110.599 41.3664C109.803 41.795 108.88 42.0092 107.831 42.0092C106.646 42.0092 105.562 41.7006 104.58 41.0836C103.598 40.4666 102.819 39.601 102.244 38.487C101.685 37.3557 101.406 36.0617 101.406 34.6048ZM112.478 34.6563C112.478 33.7821 112.309 33.0366 111.97 32.4195C111.631 31.7854 111.174 31.3055 110.599 30.9798C110.023 30.637 109.405 30.4656 108.745 30.4656C108.085 30.4656 107.475 30.6284 106.916 30.9541C106.358 31.2798 105.901 31.7597 105.545 32.3938C105.206 33.0109 105.037 33.7479 105.037 34.6048C105.037 35.4618 105.206 36.216 105.545 36.8673C105.901 37.5014 106.358 37.9899 106.916 38.3327C107.492 38.6755 108.101 38.8469 108.745 38.8469C109.405 38.8469 110.023 38.6841 110.599 38.3584C111.174 38.0156 111.631 37.5357 111.97 36.9187C112.309 36.2845 112.478 35.5304 112.478 34.6563ZM118.616 34.6048C118.616 33.1651 118.896 31.8882 119.454 30.7741C120.03 29.6601 120.801 28.8031 121.766 28.2032C122.747 27.6033 123.839 27.3034 125.042 27.3034C126.091 27.3034 127.005 27.5176 127.784 27.9461C128.58 28.3746 129.215 28.9145 129.689 29.5658V27.5348H133.269V41.7778H129.689V39.6953C129.232 40.3638 128.597 40.9209 127.784 41.3664C126.988 41.795 126.066 42.0092 125.016 42.0092C123.831 42.0092 122.747 41.7006 121.766 41.0836C120.801 40.4666 120.03 39.601 119.454 38.487C118.896 37.3557 118.616 36.0617 118.616 34.6048ZM129.689 34.6563C129.689 33.7821 129.519 33.0366 129.181 32.4195C128.842 31.7854 128.385 31.3055 127.81 30.9798C127.234 30.637 126.616 30.4656 125.956 30.4656C125.295 30.4656 124.686 30.6284 124.127 30.9541C123.569 31.2798 123.112 31.7597 122.756 32.3938C122.417 33.0109 122.248 33.7479 122.248 34.6048C122.248 35.4618 122.417 36.216 122.756 36.8673C123.112 37.5014 123.569 37.9899 124.127 38.3327C124.703 38.6755 125.312 38.8469 125.956 38.8469C126.616 38.8469 127.234 38.6841 127.81 38.3584C128.385 38.0156 128.842 37.5357 129.181 36.9187C129.519 36.2845 129.689 35.5304 129.689 34.6563ZM140.297 29.7458C140.754 28.9916 141.346 28.4003 142.075 27.9718C142.819 27.5433 143.666 27.3291 144.614 27.3291V31.1084H143.674C142.557 31.1084 141.71 31.374 141.135 31.9054C140.576 32.4367 140.297 33.3622 140.297 34.682V41.7778H136.742V27.5348H140.297V29.7458ZM146.094 34.6048C146.094 33.1651 146.373 31.8882 146.932 30.7741C147.508 29.6601 148.278 28.8031 149.243 28.2032C150.225 27.6033 151.317 27.3034 152.519 27.3034C153.569 27.3034 154.483 27.5176 155.262 27.9461C156.057 28.3746 156.692 28.9145 157.166 29.5658V27.5348H160.747V41.7778H157.166V39.6953C156.709 40.3638 156.074 40.9209 155.262 41.3664C154.466 41.795 153.543 42.0092 152.494 42.0092C151.309 42.0092 150.225 41.7006 149.243 41.0836C148.278 40.4666 147.508 39.601 146.932 38.487C146.373 37.3557 146.094 36.0617 146.094 34.6048ZM157.166 34.6563C157.166 33.7821 156.997 33.0366 156.658 32.4195C156.32 31.7854 155.863 31.3055 155.287 30.9798C154.711 30.637 154.094 30.4656 153.433 30.4656C152.773 30.4656 152.164 30.6284 151.605 30.9541C151.046 31.2798 150.589 31.7597 150.234 32.3938C149.895 33.0109 149.726 33.7479 149.726 34.6048C149.726 35.4618 149.895 36.216 150.234 36.8673C150.589 37.5014 151.046 37.9899 151.605 38.3327C152.18 38.6755 152.79 38.8469 153.433 38.8469C154.094 38.8469 154.711 38.6841 155.287 38.3584C155.863 38.0156 156.32 37.5357 156.658 36.9187C156.997 36.2845 157.166 35.5304 157.166 34.6563ZM173.507 36.186H175.193L177.269 38.3456L175.193 40.5052H173.507L175.592 38.3456L173.507 36.186Z" fill="#150578"/>
<path d="M165.295 40.5051L163.219 38.3456L165.295 36.186H166.971L164.895 38.3456L166.971 40.5051H165.295ZM172.256 32.6477L169.685 43.5228H168.38L170.952 32.6477H172.256Z" fill="#A623C7"/>
<path d="M31.5688 3.61536H12.1261C7.08592 3.61536 3 7.75194 3 12.8547V33.3419C3 38.4446 7.08592 42.5812 12.1261 42.5812H31.5688C36.609 42.5812 40.695 38.4446 40.695 33.3419V12.8547C40.695 7.75194 36.609 3.61536 31.5688 3.61536Z" fill="url(#paint0_linear_12_465)"/>
<path d="M22.9823 13.3126V32.9401H19.0938V24.5886H10.789V32.9401H6.90045V13.3126H10.789V21.383H19.0938V13.3126H22.9823ZM34.4756 22.8733C35.5681 23.0795 36.4662 23.6325 37.1698 24.5324C37.8734 25.4322 38.2253 26.4633 38.2253 27.6255C38.2253 28.6753 37.966 29.6033 37.4476 30.4094C36.9476 31.1967 36.2162 31.8154 35.2533 32.2653C34.2904 32.7152 33.1517 32.9401 31.837 32.9401H23.4766V13.3126H31.4759C32.7906 13.3126 33.9201 13.5282 34.8645 13.9594C35.8273 14.3905 36.5495 14.9904 37.0309 15.759C37.5309 16.5276 37.7809 17.3993 37.7809 18.3742C37.7809 19.5177 37.4753 20.4738 36.8643 21.2424C36.2717 22.011 35.4755 22.5546 34.4756 22.8733ZM27.3652 21.4111H30.9204C31.8462 21.4111 32.5591 21.2049 33.0591 20.7925C33.559 20.3613 33.809 19.752 33.809 18.9647C33.809 18.1773 33.559 17.5681 33.0591 17.1369C32.5591 16.7057 31.8462 16.4901 30.9204 16.4901H27.3652V21.4111ZM31.2815 29.7345C32.2258 29.7345 32.9572 29.5095 33.4757 29.0596C34.0127 28.6097 34.2812 27.9723 34.2812 27.1475C34.2812 26.3039 34.0034 25.6478 33.4479 25.1791C32.8924 24.6917 32.1425 24.448 31.1981 24.448H27.3652V29.7345H31.2815Z" fill="white"/>
<defs>
<linearGradient id="paint0_linear_12_465" x1="21.8475" y1="3.61536" x2="21.8475" y2="42.5812" gradientUnits="userSpaceOnUse">
<stop stop-color="#7A2A96"/>
<stop offset="1" stop-color="#150578"/>
</linearGradient>
</defs>
</svg>
