<svg width="182" height="47" viewBox="0 0 182 47" fill="none" xmlns="http://www.w3.org/2000/svg">
<path d="M69.3247 3.74715V21.6923H65.7889V14.0566H58.2375V21.6923H54.7017V3.74715H58.2375V11.1258H65.7889V3.74715H69.3247ZM69.8752 14.5194C69.8752 13.0797 70.153 11.8028 70.7087 10.6887C71.2813 9.57463 72.0472 8.71762 73.0069 8.11775C73.9836 7.51788 75.0696 7.21792 76.2649 7.21792C77.3087 7.21792 78.2179 7.43215 78.9925 7.86066C79.7838 8.28916 80.4151 8.82906 80.8867 9.48035V7.44931H84.4478V21.6923H80.8867V19.6099C80.4321 20.2783 79.8007 20.8353 78.9925 21.281C78.2013 21.7095 77.2834 21.9237 76.2397 21.9237C75.0609 21.9237 73.9836 21.6152 73.0069 20.9982C72.0472 20.3811 71.2813 19.5156 70.7087 18.4015C70.153 17.2703 69.8752 15.9763 69.8752 14.5194ZM80.8867 14.5708C80.8867 13.6967 80.7182 12.9511 80.3816 12.3341C80.045 11.6999 79.5904 11.22 79.0178 10.8944C78.4452 10.5516 77.8308 10.3802 77.1741 10.3802C76.5175 10.3802 75.9113 10.543 75.3557 10.8687C74.8001 11.1943 74.3455 11.6742 73.9919 12.3084C73.6553 12.9254 73.4868 13.6624 73.4868 14.5194C73.4868 15.3764 73.6553 16.1305 73.9919 16.7818C74.3455 17.416 74.8001 17.9045 75.3557 18.2473C75.9283 18.59 76.5345 18.7614 77.1741 18.7614C77.8308 18.7614 78.4452 18.5986 79.0178 18.273C79.5904 17.9302 80.045 17.4503 80.3816 16.8332C80.7182 16.1991 80.8867 15.4449 80.8867 14.5708ZM91.2349 21.9237C90.0901 21.9237 89.0629 21.718 88.1537 21.3067C87.2445 20.8782 86.5203 20.304 85.9817 19.5841C85.4596 18.8643 85.1735 18.0673 85.123 17.1932H88.684C88.7515 17.7416 89.0124 18.1958 89.467 18.5558C89.9385 18.9157 90.5194 19.0957 91.2096 19.0957C91.8832 19.0957 92.4049 18.9586 92.7755 18.6843C93.1626 18.4101 93.3563 18.0587 93.3563 17.6302C93.3563 17.1675 93.1208 16.8247 92.6492 16.6019C92.1946 16.3619 91.4622 16.1048 90.4519 15.8306C89.4082 15.5735 88.5495 15.3078 87.8758 15.0336C87.2192 14.7593 86.6466 14.3394 86.1585 13.7738C85.6869 13.2082 85.4513 12.4455 85.4513 11.4857C85.4513 10.6972 85.6703 9.97739 86.1079 9.32609C86.5626 8.6748 87.2022 8.16061 88.0274 7.78353C88.8691 7.40644 89.8541 7.21792 90.9823 7.21792C92.6492 7.21792 93.9795 7.64643 94.9727 8.50339C95.966 9.34325 96.5133 10.483 96.6143 11.9227H93.2301C93.1796 11.3571 92.944 10.9115 92.5229 10.5859C92.1188 10.2431 91.5715 10.0717 90.8813 10.0717C90.2416 10.0717 89.7448 10.1917 89.3912 10.4316C89.0546 10.6715 88.8861 11.0058 88.8861 11.4343C88.8861 11.9142 89.1217 12.2827 89.5932 12.5398C90.0648 12.7797 90.7972 13.0282 91.7905 13.2853C92.8007 13.5424 93.6342 13.8081 94.2908 14.0823C94.9475 14.3566 95.5114 14.785 95.9829 15.3678C96.4711 15.9334 96.7236 16.6875 96.7406 17.6302C96.7406 18.4529 96.5133 19.1899 96.0587 19.8412C95.6211 20.4925 94.981 21.0067 94.1393 21.3838C93.3141 21.7437 92.3461 21.9237 91.2349 21.9237ZM105.502 7.24363C106.563 7.24363 107.506 7.48357 108.331 7.9635C109.156 8.42626 109.796 9.12042 110.25 10.046C110.722 10.9543 110.958 12.0513 110.958 13.3368V21.6923H107.422V13.8252C107.422 12.694 107.144 11.8285 106.588 11.2286C106.033 10.6116 105.275 10.3031 104.315 10.3031C103.339 10.3031 102.564 10.6116 101.992 11.2286C101.436 11.8285 101.158 12.694 101.158 13.8252V21.6923H97.6226V2.66736H101.158V9.22326C101.613 8.60623 102.219 8.12631 102.977 7.78353C103.734 7.4236 104.576 7.24363 105.502 7.24363ZM111.391 14.5194C111.391 13.0797 111.668 11.8028 112.224 10.6887C112.796 9.57463 113.563 8.71762 114.522 8.11775C115.499 7.51788 116.585 7.21792 117.78 7.21792C118.824 7.21792 119.733 7.43215 120.508 7.86066C121.299 8.28916 121.93 8.82906 122.402 9.48035V7.44931H125.963V21.6923H122.402V19.6099C121.947 20.2783 121.316 20.8353 120.508 21.281C119.716 21.7095 118.799 21.9237 117.755 21.9237C116.576 21.9237 115.499 21.6152 114.522 20.9982C113.563 20.3811 112.796 19.5156 112.224 18.4015C111.668 17.2703 111.391 15.9763 111.391 14.5194ZM122.402 14.5708C122.402 13.6967 122.234 12.9511 121.897 12.3341C121.56 11.6999 121.105 11.22 120.533 10.8944C119.96 10.5516 119.346 10.3802 118.689 10.3802C118.033 10.3802 117.427 10.543 116.871 10.8687C116.315 11.1943 115.861 11.6742 115.507 12.3084C115.17 12.9254 115.002 13.6624 115.002 14.5194C115.002 15.3764 115.17 16.1305 115.507 16.7818C115.861 17.416 116.315 17.9045 116.871 18.2473C117.443 18.59 118.049 18.7614 118.689 18.7614C119.346 18.7614 119.96 18.5986 120.533 18.273C121.105 17.9302 121.56 17.4503 121.897 16.8332C122.234 16.1991 122.402 15.4449 122.402 14.5708ZM135.149 7.24363C136.816 7.24363 138.163 7.78353 139.19 8.86332C140.217 9.92597 140.731 11.4171 140.731 13.3368V21.6923H137.195V13.8252C137.195 12.694 136.917 11.8285 136.361 11.2286C135.806 10.6116 135.048 10.3031 134.088 10.3031C133.112 10.3031 132.337 10.6116 131.765 11.2286C131.209 11.8285 130.931 12.694 130.931 13.8252V21.6923H127.396V7.44931H130.931V9.22326C131.403 8.60623 132.001 8.12631 132.724 7.78353C133.466 7.4236 134.274 7.24363 135.149 7.24363ZM146.189 10.4059V17.296C146.189 17.7759 146.299 18.1273 146.518 18.3501C146.753 18.5558 147.141 18.6586 147.679 18.6586H149.321V21.6923H147.099C144.118 21.6923 142.628 20.2183 142.628 17.2703V10.4059H140.961V7.44931H142.628V3.92712H146.189V7.44931H149.321V10.4059H146.189ZM157.724 7.24363C158.784 7.24363 159.727 7.48357 160.552 7.9635C161.377 8.42626 162.017 9.12042 162.472 10.046C162.943 10.9543 163.179 12.0513 163.179 13.3368V21.6923H159.643V13.8252C159.643 12.694 159.365 11.8285 158.81 11.2286C158.254 10.6116 157.496 10.3031 156.537 10.3031C155.56 10.3031 154.785 10.6116 154.213 11.2286C153.658 11.8285 153.38 12.694 153.38 13.8252V21.6923H149.844V2.66736H153.38V9.22326C153.834 8.60623 154.44 8.12631 155.198 7.78353C155.956 7.4236 156.798 7.24363 157.724 7.24363ZM163.611 14.5194C163.611 13.0797 163.889 11.8028 164.445 10.6887C165.018 9.57463 165.783 8.71762 166.743 8.11775C167.72 7.51788 168.806 7.21792 170.001 7.21792C171.045 7.21792 171.954 7.43215 172.729 7.86066C173.52 8.28916 174.151 8.82906 174.623 9.48035V7.44931H178.184V21.6923H174.623V19.6099C174.168 20.2783 173.537 20.8353 172.729 21.281C171.938 21.7095 171.02 21.9237 169.976 21.9237C168.797 21.9237 167.72 21.6152 166.743 20.9982C165.783 20.3811 165.018 19.5156 164.445 18.4015C163.889 17.2703 163.611 15.9763 163.611 14.5194ZM174.623 14.5708C174.623 13.6967 174.454 12.9511 174.118 12.3341C173.781 11.6999 173.327 11.22 172.754 10.8944C172.181 10.5516 171.567 10.3802 170.91 10.3802C170.254 10.3802 169.648 10.543 169.092 10.8687C168.536 11.1943 168.082 11.6742 167.728 12.3084C167.392 12.9254 167.223 13.6624 167.223 14.5194C167.223 15.3764 167.392 16.1305 167.728 16.7818C168.082 17.416 168.536 17.9045 169.092 18.2473C169.665 18.59 170.271 18.7614 170.91 18.7614C171.567 18.7614 172.181 18.5986 172.754 18.273C173.327 17.9302 173.781 17.4503 174.118 16.8332C174.454 16.1991 174.623 15.4449 174.623 14.5708Z" fill="white"/>
<path d="M64.7029 32.5738C65.6962 32.7623 66.5131 33.268 67.1527 34.0907C67.7924 34.9134 68.1124 35.856 68.1124 36.9187C68.1124 37.8785 67.8769 38.7269 67.4053 39.4639C66.9507 40.1838 66.2858 40.7494 65.4101 41.1607C64.5344 41.5721 63.4989 41.7778 62.3036 41.7778H54.7017V23.8326H61.9753C63.1706 23.8326 64.1978 24.0297 65.0565 24.4239C65.9322 24.8181 66.5888 25.3666 67.0265 26.0693C67.4811 26.772 67.7084 27.569 67.7084 28.4603C67.7084 29.5058 67.4305 30.3799 66.8749 31.0827C66.3363 31.7854 65.6121 32.2824 64.7029 32.5738ZM58.2375 31.2369H61.4702C62.3119 31.2369 62.9603 31.0484 63.4149 30.6713C63.8695 30.2771 64.0968 29.7201 64.0968 29.0002C64.0968 28.2803 63.8695 27.7233 63.4149 27.3291C62.9603 26.9349 62.3119 26.7378 61.4702 26.7378H58.2375V31.2369ZM61.7985 38.8469C62.6572 38.8469 63.3221 38.6412 63.7937 38.2299C64.2819 37.8185 64.5261 37.2358 64.5261 36.4816C64.5261 35.7103 64.2736 35.1105 63.7685 34.682C63.2634 34.2364 62.5814 34.0135 61.7227 34.0135H58.2375V38.8469H61.7985ZM70.0212 34.6048C70.0212 33.1651 70.299 31.8882 70.8547 30.7741C71.4273 29.6601 72.1932 28.8031 73.1529 28.2032C74.1296 27.6033 75.2156 27.3034 76.4109 27.3034C77.4547 27.3034 78.3639 27.5176 79.1386 27.9461C79.9298 28.3746 80.5612 28.9145 81.0327 29.5658V27.5348H84.5938V41.7778H81.0327V39.6953C80.5781 40.3638 79.9467 40.9209 79.1386 41.3664C78.3473 41.795 77.4294 42.0092 76.3857 42.0092C75.2069 42.0092 74.1296 41.7006 73.1529 41.0836C72.1932 40.4666 71.4273 39.601 70.8547 38.487C70.299 37.3557 70.0212 36.0617 70.0212 34.6048ZM81.0327 34.6563C81.0327 33.7821 80.8642 33.0366 80.5276 32.4195C80.191 31.7854 79.7364 31.3055 79.1638 30.9798C78.5912 30.637 77.9768 30.4656 77.3201 30.4656C76.6635 30.4656 76.0574 30.6284 75.5017 30.9541C74.9461 31.2798 74.4915 31.7597 74.1379 32.3938C73.8013 33.0109 73.6328 33.7479 73.6328 34.6048C73.6328 35.4618 73.8013 36.216 74.1379 36.8673C74.4915 37.5014 74.9461 37.9899 75.5017 38.3327C76.0743 38.6755 76.6805 38.8469 77.3201 38.8469C77.9768 38.8469 78.5912 38.6841 79.1638 38.3584C79.7364 38.0156 80.191 37.5357 80.5276 36.9187C80.8642 36.2845 81.0327 35.5304 81.0327 34.6563ZM95.8006 27.3291C97.4675 27.3291 98.8143 27.869 99.8415 28.9488C100.869 30.0114 101.382 31.5026 101.382 33.4222V41.7778H97.8463V33.9107C97.8463 32.7795 97.5685 31.9139 97.0129 31.314C96.4573 30.697 95.6996 30.3885 94.7399 30.3885C93.7632 30.3885 92.989 30.697 92.4164 31.314C91.8607 31.9139 91.5829 32.7795 91.5829 33.9107V41.7778H88.0471V27.5348H91.5829V29.3087C92.0545 28.6917 92.6519 28.2118 93.3761 27.869C94.1168 27.509 94.925 27.3291 95.8006 27.3291ZM103.835 34.6048C103.835 33.1651 104.113 31.8882 104.669 30.7741C105.241 29.6601 106.016 28.8031 106.992 28.2032C107.969 27.6033 109.055 27.3034 110.25 27.3034C111.16 27.3034 112.027 27.509 112.852 27.9204C113.677 28.3146 114.333 28.8459 114.822 29.5144V22.7528H118.408V41.7778H114.822V39.6696C114.384 40.3722 113.769 40.9378 112.978 41.3664C112.186 41.795 111.269 42.0092 110.225 42.0092C109.046 42.0092 107.969 41.7006 106.992 41.0836C106.016 40.4666 105.241 39.601 104.669 38.487C104.113 37.3557 103.835 36.0617 103.835 34.6048ZM114.847 34.6563C114.847 33.7821 114.678 33.0366 114.342 32.4195C114.005 31.7854 113.55 31.3055 112.978 30.9798C112.405 30.637 111.791 30.4656 111.134 30.4656C110.478 30.4656 109.872 30.6284 109.316 30.9541C108.76 31.2798 108.306 31.7597 107.952 32.3938C107.615 33.0109 107.447 33.7479 107.447 34.6048C107.447 35.4618 107.615 36.216 107.952 36.8673C108.306 37.5014 108.76 37.9899 109.316 38.3327C109.888 38.6755 110.494 38.8469 111.134 38.8469C111.791 38.8469 112.405 38.6841 112.978 38.3584C113.55 38.0156 114.005 37.5357 114.342 36.9187C114.678 36.2845 114.847 35.5304 114.847 34.6563ZM120.952 34.6048C120.952 33.1651 121.23 31.8882 121.785 30.7741C122.358 29.6601 123.124 28.8031 124.084 28.2032C125.06 27.6033 126.146 27.3034 127.342 27.3034C128.386 27.3034 129.295 27.5176 130.069 27.9461C130.861 28.3746 131.492 28.9145 131.964 29.5658V27.5348H135.525V41.7778H131.964V39.6953C131.509 40.3638 130.878 40.9209 130.069 41.3664C129.278 41.795 128.36 42.0092 127.317 42.0092C126.138 42.0092 125.06 41.7006 124.084 41.0836C123.124 40.4666 122.358 39.601 121.785 38.487C121.23 37.3557 120.952 36.0617 120.952 34.6048ZM131.964 34.6563C131.964 33.7821 131.795 33.0366 131.459 32.4195C131.122 31.7854 130.667 31.3055 130.095 30.9798C129.522 30.637 128.908 30.4656 128.251 30.4656C127.594 30.4656 126.988 30.6284 126.433 30.9541C125.877 31.2798 125.422 31.7597 125.069 32.3938C124.732 33.0109 124.564 33.7479 124.564 34.6048C124.564 35.4618 124.732 36.216 125.069 36.8673C125.422 37.5014 125.877 37.9899 126.433 38.3327C127.005 38.6755 127.611 38.8469 128.251 38.8469C128.908 38.8469 129.522 38.6841 130.095 38.3584C130.667 38.0156 131.122 37.5357 131.459 36.9187C131.795 36.2845 131.964 35.5304 131.964 34.6563ZM142.514 29.7458C142.968 28.9916 143.558 28.4003 144.282 27.9718C145.022 27.5433 145.864 27.3291 146.807 27.3291V31.1084H145.873C144.762 31.1084 143.919 31.374 143.347 31.9054C142.792 32.4367 142.514 33.3622 142.514 34.682V41.7778H138.978V27.5348H142.514V29.7458ZM148.279 34.6048C148.279 33.1651 148.557 31.8882 149.113 30.7741C149.685 29.6601 150.452 28.8031 151.411 28.2032C152.388 27.6033 153.474 27.3034 154.669 27.3034C155.713 27.3034 156.622 27.5176 157.397 27.9461C158.188 28.3746 158.82 28.9145 159.291 29.5658V27.5348H162.852V41.7778H159.291V39.6953C158.837 40.3638 158.205 40.9209 157.397 41.3664C156.605 41.795 155.688 42.0092 154.644 42.0092C153.465 42.0092 152.388 41.7006 151.411 41.0836C150.452 40.4666 149.685 39.601 149.113 38.487C148.557 37.3557 148.279 36.0617 148.279 34.6048ZM159.291 34.6563C159.291 33.7821 159.123 33.0366 158.786 32.4195C158.449 31.7854 157.994 31.3055 157.422 30.9798C156.85 30.637 156.235 30.4656 155.579 30.4656C154.922 30.4656 154.316 30.6284 153.76 30.9541C153.205 31.2798 152.75 31.7597 152.396 32.3938C152.059 33.0109 151.891 33.7479 151.891 34.6048C151.891 35.4618 152.059 36.216 152.396 36.8673C152.75 37.5014 153.205 37.9899 153.76 38.3327C154.332 38.6755 154.938 38.8469 155.579 38.8469C156.235 38.8469 156.85 38.6841 157.422 38.3584C157.994 38.0156 158.449 37.5357 158.786 36.9187C159.123 36.2845 159.291 35.5304 159.291 34.6563ZM175.542 36.186H177.219L179.283 38.3456L177.219 40.5052H175.542L177.617 38.3456L175.542 36.186Z" fill="#8F18EB"/>
<path d="M167.376 40.5051L165.311 38.3456L167.376 36.186H169.043L166.978 38.3456L169.043 40.5051H167.376ZM174.299 32.6477L171.741 43.5228H170.444L173.001 32.6477H174.299Z" fill="#A623C7"/>
<path d="M31.4127 3.61536H12.0763C7.06359 3.61536 3 7.75194 3 12.8547V33.3419C3 38.4446 7.06359 42.5812 12.0763 42.5812H31.4127C36.4254 42.5812 40.489 38.4446 40.489 33.3419V12.8547C40.489 7.75194 36.4254 3.61536 31.4127 3.61536Z" fill="url(#paint0_linear_13_471)"/>
<path d="M22.8731 13.3126V32.9401H19.0058V24.5886H10.7464V32.9401H6.87915V13.3126H10.7464V21.383H19.0058V13.3126H22.8731ZM34.3036 22.8733C35.3901 23.0795 36.2833 23.6325 36.9831 24.5324C37.6829 25.4322 38.0328 26.4633 38.0328 27.6255C38.0328 28.6753 37.775 29.6033 37.2593 30.4094C36.7621 31.1967 36.0347 31.8154 35.0771 32.2653C34.1195 32.7152 32.9869 32.9401 31.6794 32.9401H23.3647V13.3126H31.3203C32.6278 13.3126 33.7512 13.5282 34.6904 13.9594C35.648 14.3905 36.3662 14.9904 36.845 15.759C37.3422 16.5276 37.5908 17.3993 37.5908 18.3742C37.5908 19.5177 37.287 20.4738 36.6793 21.2424C36.0899 22.011 35.2981 22.5546 34.3036 22.8733ZM27.232 21.4111H30.7678C31.6886 21.4111 32.3976 21.2049 32.8948 20.7925C33.3921 20.3613 33.6407 19.752 33.6407 18.9647C33.6407 18.1773 33.3921 17.5681 32.8948 17.1369C32.3976 16.7057 31.6886 16.4901 30.7678 16.4901H27.232V21.4111ZM31.1269 29.7345C32.0661 29.7345 32.7935 29.5095 33.3092 29.0596C33.8432 28.6097 34.1103 27.9723 34.1103 27.1475C34.1103 26.3039 33.834 25.6478 33.2816 25.1791C32.7291 24.6917 31.9833 24.448 31.0441 24.448H27.232V29.7345H31.1269Z" fill="url(#paint1_linear_13_471)"/>
<defs>
<linearGradient id="paint0_linear_13_471" x1="21.7445" y1="3.61536" x2="21.7445" y2="42.5812" gradientUnits="userSpaceOnUse">
<stop stop-color="#F5D7FF"/>
<stop offset="1" stop-color="#F4EAFC"/>
</linearGradient>
<linearGradient id="paint1_linear_13_471" x1="22.456" y1="13.3126" x2="22.456" y2="32.9401" gradientUnits="userSpaceOnUse">
<stop stop-color="#7A2A96"/>
<stop offset="1" stop-color="#150578"/>
</linearGradient>
</defs>
</svg>
